<svg width="48" height="45" viewBox="0 0 48 45" fill="none" xmlns="http://www.w3.org/2000/svg">
<g clip-path="url(#clip0_729_337)">
<path opacity="0.983" fill-rule="evenodd" clip-rule="evenodd" d="M12.9036 -0.0439453C13.3018 -0.0439453 13.7001 -0.0439453 14.0982 -0.0439453C15.6257 0.631339 16.0392 1.71533 15.3388 3.20801C12.9342 5.50782 10.5296 7.80761 8.12498 10.1074C20.7761 10.1367 33.4271 10.166 46.0782 10.1953C46.882 10.4223 47.4334 10.9057 47.7323 11.6455C47.7323 12.0263 47.7323 12.4073 47.7323 12.7881C47.5013 13.5454 46.9806 14.0288 46.1701 14.2383C33.4884 14.2675 20.8067 14.2969 8.12498 14.3262C10.4989 16.5967 12.873 18.8672 15.247 21.1377C15.7983 22.0166 15.7983 22.8955 15.247 23.7744C14.2232 24.7311 13.1358 24.8044 11.9846 23.9941C8.41599 20.5811 4.84733 17.1679 1.27869 13.7549C1.0296 13.4532 0.830486 13.1309 0.681366 12.7881C0.681366 12.4073 0.681366 12.0263 0.681366 11.6455C0.784357 11.4485 0.891569 11.2434 1.003 11.0303C4.75544 7.44141 8.50788 3.85254 12.2603 0.263672C12.4832 0.157095 12.6977 0.0545561 12.9036 -0.0439453Z" fill="#4FF3BA"/>
<path opacity="0.983" fill-rule="evenodd" clip-rule="evenodd" d="M47.7323 32.124C47.7323 32.5048 47.7323 32.8857 47.7323 33.2665C47.6293 33.4635 47.5222 33.6686 47.4107 33.8818C43.6583 37.4706 39.9058 41.0595 36.1534 44.6484C35.9305 44.755 35.7161 44.8575 35.5101 44.956C35.1119 44.956 34.7136 44.956 34.3155 44.956C32.788 44.2807 32.3745 43.1967 33.0749 41.704C35.4795 39.4042 37.8841 37.1044 40.2887 34.8046C27.6376 34.7753 14.9866 34.746 2.3355 34.7167C1.53167 34.4897 0.980293 34.0063 0.681366 33.2665C0.681366 32.8857 0.681366 32.5048 0.681366 32.124C0.912356 31.3666 1.4331 30.8832 2.24361 30.6738C14.9253 30.6445 27.607 30.6151 40.2887 30.5859C37.9148 28.3154 35.5407 26.0448 33.1668 23.7743C32.6154 22.8954 32.6154 22.0165 33.1668 21.1376C34.1905 20.1809 35.2779 20.1076 36.4291 20.9179C39.9977 24.331 43.5664 27.7441 47.135 31.1572C47.3841 31.4589 47.5832 31.7812 47.7323 32.124Z" fill="#4FF3BA"/>
</g>
<defs>
<clipPath id="clip0_729_337">
<rect width="47.051" height="45" fill="white" transform="translate(0.727051)"/>
</clipPath>
</defs>
</svg>
