<svg width="54" height="40" viewBox="0 0 54 40" fill="none" xmlns="http://www.w3.org/2000/svg">
<path opacity="0.955" fill-rule="evenodd" clip-rule="evenodd" d="M53.215 5.98632C53.215 6.70244 53.215 7.41865 53.215 8.13476C52.5528 15.1484 51.9231 22.1797 51.326 29.2285C50.8995 31.3292 49.5721 32.4686 47.3438 32.6465C46.8536 32.5789 46.36 32.5139 45.8632 32.4512C45.7782 33.8823 45.7271 35.3146 45.7101 36.748C45.2948 38.2846 44.2907 39.2774 42.6979 39.7266C29.7984 39.7917 16.8988 39.7917 3.99931 39.7266C2.38116 39.3345 1.36008 38.3742 0.936096 36.8457C0.936096 28.9355 0.936096 21.0254 0.936096 13.1152C1.36803 11.5469 2.42314 10.5866 4.10142 10.2344C5.32623 10.1855 6.55152 10.1692 7.77728 10.1855C8.02123 7.87402 8.2765 5.56279 8.54308 3.25195C9.29487 0.783092 11.0137 -0.242299 13.6995 0.175778C25.8517 1.13618 38.0024 2.11274 50.1517 3.10547C51.7708 3.49843 52.7918 4.45872 53.215 5.98632ZM11.9637 2.17773C24.3563 3.08405 36.7453 4.04433 49.1307 5.05859C50.4481 5.19531 51.0948 5.89521 51.0707 7.1582C50.4636 14.4516 49.8339 21.7433 49.1817 29.0332C48.9622 29.9429 48.3666 30.4637 47.3948 30.5957C46.8525 30.5199 46.3079 30.4548 45.7611 30.4004C45.7782 24.6711 45.7611 18.942 45.7101 13.2129C45.2846 11.6341 44.2466 10.6413 42.5958 10.2344C31.7045 10.1855 20.813 10.1692 9.92153 10.1855C10.1729 7.97256 10.4282 5.75908 10.6873 3.54492C10.8868 2.88281 11.3122 2.42708 11.9637 2.17773ZM4.40774 12.2363C17.035 12.22 29.6623 12.2363 42.2895 12.2852C42.8026 12.4501 43.1941 12.7594 43.4637 13.2129C43.6084 14.1164 43.6595 15.0278 43.6169 15.9473C30.0706 15.9473 16.5245 15.9473 2.97824 15.9473C2.94787 15.0958 2.99893 14.2494 3.1314 13.4082C3.41413 12.8608 3.83957 12.4702 4.40774 12.2363ZM2.97824 17.998C16.5245 17.998 30.0706 17.998 43.6169 17.998C43.6169 19.3001 43.6169 20.6022 43.6169 21.9043C30.0706 21.9043 16.5245 21.9043 2.97824 21.9043C2.97824 20.6022 2.97824 19.3001 2.97824 17.998ZM2.97824 23.9551C16.5245 23.9551 30.0706 23.9551 43.6169 23.9551C43.6339 28.1219 43.6169 32.2886 43.5658 36.4551C43.3535 37.0163 42.9622 37.4232 42.3916 37.6758C29.6963 37.7409 17.0009 37.7409 4.30563 37.6758C3.52755 37.3537 3.10211 36.7841 3.02929 35.9668C2.97824 31.963 2.96122 27.9591 2.97824 23.9551ZM30.6493 28.8379C33.202 28.8379 35.7546 28.8379 38.3073 28.8379C38.3073 30.2051 38.3073 31.5723 38.3073 32.9395C35.7546 32.9395 33.202 32.9395 30.6493 32.9395C30.6493 31.5723 30.6493 30.2051 30.6493 28.8379Z" fill="#4FF3BA"/>
</svg>
