<svg class="favorite" width="49" height="43" viewBox="0 0 49 43" fill="none" xmlns="http://www.w3.org/2000/svg">
<path d="M39.6881 2.8961C41.125 3.4877 42.4305 4.3548 43.5301 5.44788C44.6301 6.54045 45.5028 7.83767 46.0982 9.26545C46.6936 10.6932 47 12.2236 47 13.769C47 15.3145 46.6936 16.8449 46.0982 18.2726C45.5028 19.7004 44.6301 20.9976 43.5301 22.0902L41.2481 24.3577L24.4994 41L7.75072 24.3577L5.46877 22.0902C3.24775 19.8833 2 16.8901 2 13.769C2 10.648 3.24775 7.65479 5.46877 5.44788C7.68978 3.24097 10.7021 2.00114 13.8431 2.00114C16.9841 2.00114 19.9965 3.24097 22.2175 5.44788L24.4994 7.71535L26.7814 5.44788C27.8809 4.3548 29.1864 3.4877 30.6233 2.8961C32.0602 2.3045 33.6004 2 35.1557 2C36.7111 2 38.2512 2.3045 39.6881 2.8961Z" stroke="#4FF3BA" stroke-width="5" stroke-linecap="round" stroke-linejoin="round"/>
</svg>
