<svg width="51" height="51" viewBox="0 0 51 51" fill="none" xmlns="http://www.w3.org/2000/svg">
<path d="M15.2943 40.8C12.4904 40.8 10.2217 43.095 10.2217 45.9C10.2217 48.705 12.4904 51 15.2943 51C18.0983 51 20.3924 48.705 20.3924 45.9C20.3924 43.095 18.0983 40.8 15.2943 40.8ZM40.7849 40.8C37.9809 40.8 35.7122 43.095 35.7122 45.9C35.7122 48.705 37.9809 51 40.7849 51C43.5888 51 45.883 48.705 45.883 45.9C45.883 43.095 43.5888 40.8 40.7849 40.8ZM37.0887 28.05C39.0005 28.05 40.6829 27.0045 41.5496 25.4235L50.6752 8.874C51.6183 7.191 50.3948 5.1 48.4575 5.1H10.7315L8.3354 0H0V5.1H5.09811L14.2747 24.4545L10.8335 30.6765C8.97267 34.0935 11.4198 38.25 15.2943 38.25H45.883V33.15H15.2943L18.0983 28.05H37.0887ZM13.1531 10.2H44.1241L37.0887 22.95H19.1944L13.1531 10.2Z" fill="#4FF3BA"/>
</svg>
