<svg width="121" height="92" viewBox="0 0 121 92" fill="none" xmlns="http://www.w3.org/2000/svg">
<ellipse cx="58.9463" cy="45.5262" rx="42.5" ry="43" transform="rotate(91.2918 58.9463 45.5262)" fill="#4FF3BA"/>
<path d="M27.6945 38.6815C24.6491 43.6412 23.7123 47.9495 24.8841 51.6063C25.802 54.4708 27.5377 56.5338 30.0913 57.795C32.6449 59.0563 35.2476 59.2133 37.8994 58.2659C40.5513 57.3185 42.507 55.7707 43.7665 53.6226C45.0066 51.4136 45.8281 48.9465 46.2311 46.2214C46.6341 43.4963 47.1894 40.513 47.8971 37.2715C48.5445 34.0515 49.3409 30.982 50.2863 28.0632C51.1714 25.1658 52.8164 22.4385 55.221 19.8813C57.5459 17.2847 60.7876 15.2435 64.9462 13.7578C69.1048 12.2721 73.4969 11.62 78.1225 11.8014C82.7481 11.9828 86.9672 12.8868 90.7797 14.5134C94.5922 16.1401 98.1097 18.3136 101.332 21.034C107.778 26.4747 112.201 32.9434 114.604 40.4399C116.224 45.4986 116.395 50.3282 115.115 54.9288C113.855 59.5903 111.658 62.4809 108.524 63.6006C105.39 64.7202 103.345 63.7868 102.388 60.8004C102.017 59.6424 102.862 56.7254 104.923 52.0492C105.699 50.2777 106.198 48.0617 106.42 45.4012C106.683 42.6582 106.356 39.8545 105.438 36.99C104.5 34.0645 102.981 31.2109 100.881 28.4292C98.7806 25.6475 96.2664 23.2514 93.3384 21.2408C90.4511 19.1478 87.0466 17.8509 83.1246 17.3502C79.263 16.8279 75.283 17.2988 71.1847 18.763C67.0261 20.2487 63.8519 22.6054 61.6621 25.833C59.4722 29.0606 58.0617 32.5193 57.4304 36.209C56.7992 39.8986 56.2282 43.5668 55.7175 47.2134C55.1465 50.8815 54.0072 54.2433 52.2995 57.2987C50.5918 60.3541 48.0203 62.4954 44.5849 63.7227C41.0893 64.9716 37.7413 65.3186 34.541 64.7639C31.3211 64.1482 28.6372 62.8995 26.4893 61.0177C22.2717 57.4981 19.4501 53.5137 18.0244 49.0645C16.5987 44.6154 16.4613 40.623 17.6121 37.0873C18.7629 33.5516 20.6642 31.3101 23.316 30.3627C24.883 29.8029 26.2154 29.7684 27.313 30.2593C28.3504 30.7717 29.0351 31.5459 29.3671 32.582C29.6991 33.6181 29.7111 34.5988 29.403 35.5239C29.0152 36.4097 28.4456 37.4622 27.6945 38.6815Z" fill="black"/>
<path d="M90.7524 58.5849C94.2685 53.9794 95.6184 49.8005 94.8021 46.0483C94.1627 43.109 92.6301 40.8802 90.2045 39.3617C87.7789 37.8433 85.1977 37.4159 82.461 38.0797C79.7244 38.7434 77.6243 40.0758 76.1607 42.0767C74.7107 44.1401 73.6533 46.5034 72.9886 49.1664C72.3238 51.8294 71.4822 54.7329 70.4637 57.8768C69.5074 61.0055 68.4169 63.9693 67.1924 66.7681C66.0301 69.5519 64.1262 72.0875 61.4809 74.375C58.9114 76.71 55.4808 78.398 51.1893 79.4388C46.8977 80.4797 42.4536 80.6688 37.8569 80.0061C33.2602 79.3435 29.1387 78.0059 25.4924 75.9934C21.8462 73.981 18.5469 71.4564 15.5946 68.4198C9.68985 62.3465 5.90081 55.4638 4.22744 47.7718C3.09825 42.5812 3.39375 37.7692 5.11393 33.3359C6.8205 28.8401 9.2909 26.2 12.5251 25.4156C15.7594 24.6311 17.7098 25.7711 18.3764 28.8354C18.6349 30.0236 17.5105 32.831 15.0031 37.2577C14.0585 38.9353 13.3471 41.0829 12.8689 43.7007C12.3422 46.3961 12.3985 49.2134 13.0379 52.1527C13.6909 55.1545 14.9309 58.1456 16.7579 61.126C18.5849 64.1064 20.8618 66.7472 23.5887 69.0485C26.267 71.4274 29.5382 73.07 33.4021 73.9762C37.2039 74.8976 41.2194 74.8453 45.4488 73.8195C49.7404 72.7786 53.134 70.7705 55.6297 67.795C58.1253 64.8196 59.8659 61.5335 60.8514 57.9368C61.8369 54.3401 62.7601 50.7585 63.6212 47.1919C64.5445 43.6103 66.0052 40.3921 68.0033 37.5373C70.0014 34.6826 72.773 32.8253 76.3183 31.9654C79.9257 31.0904 83.2989 31.0952 86.4378 31.9798C89.5904 32.927 92.1472 34.4465 94.1083 36.5385C97.9761 40.4723 100.407 44.7219 101.4 49.2871C102.393 53.8523 102.145 57.8297 100.656 61.2193C99.1673 64.609 97.0545 66.6357 94.3179 67.2994C92.7007 67.6916 91.3684 67.5869 90.3208 66.9851C89.3353 66.3682 88.727 65.5282 88.4957 64.4651C88.2644 63.4019 88.3471 62.4272 88.7436 61.541C89.2159 60.7023 89.8855 59.7169 90.7524 58.5849Z" fill="black"/>
</svg>
