<svg width="34" height="52" viewBox="0 0 34 52" fill="none" xmlns="http://www.w3.org/2000/svg">
<path opacity="0.946" fill-rule="evenodd" clip-rule="evenodd" d="M5.37295 0.865236C13.1877 0.842445 21.0022 0.865236 28.8168 0.933596C30.785 1.45181 32.1431 2.61392 32.8908 4.41992C33.1278 18.9062 33.1754 33.3984 33.0338 47.8965C32.492 49.779 31.2769 51.0778 29.3886 51.793C21.3898 52.0186 13.3846 52.0641 5.37295 51.9297C2.76311 51.2026 1.30989 49.5393 1.01298 46.9395C0.91763 33.2676 0.91763 19.5957 1.01298 5.92383C1.32547 3.31271 2.77884 1.6265 5.37295 0.865236ZM6.6595 2.7793C7.37425 2.7793 8.089 2.7793 8.80375 2.7793C8.38434 4.64246 9.05149 5.98686 10.8051 6.8125C14.9506 6.90369 19.0962 6.90369 23.2417 6.8125C24.3138 6.51623 25.0047 5.85547 25.3145 4.83008C25.3858 4.148 25.4097 3.46441 25.386 2.7793C26.9011 2.63116 28.3306 2.88181 29.6745 3.53125C30.2385 3.99432 30.6437 4.56398 30.8895 5.24024C30.9849 19.3678 30.9849 33.4955 30.8895 47.623C30.4845 48.7396 29.6983 49.4916 28.5309 49.8789C24.7231 50.0341 20.911 50.1024 17.0949 50.084C13.2787 50.1024 9.46661 50.0341 5.65885 49.8789C4.49138 49.4916 3.70516 48.7396 3.30018 47.623C3.0636 33.728 3.01585 19.8284 3.15723 5.92383C3.52861 4.04132 4.69608 2.99315 6.6595 2.7793ZM10.948 2.7793C15.046 2.7793 19.1438 2.7793 23.2417 2.7793C23.2654 3.32806 23.2416 3.87494 23.1702 4.41992C23.0511 4.53385 22.9319 4.64779 22.8129 4.76172C19.0008 4.85287 15.1889 4.85287 11.3769 4.76172C11.2578 4.64779 11.1386 4.53385 11.0195 4.41992C10.9481 3.87494 10.9243 3.32806 10.948 2.7793Z" fill="#4FF3BA"/>
</svg>
