<svg width="56" height="35" viewBox="0 0 56 35" fill="none" xmlns="http://www.w3.org/2000/svg">
<path opacity="0.973" fill-rule="evenodd" clip-rule="evenodd" d="M1.51164 0.566423C12.8252 0.546852 24.1386 0.566423 35.4521 0.625016C37.433 1.11334 38.6786 2.30466 39.1892 4.19923C39.2504 5.80037 39.2709 7.40185 39.2504 9.00392C42.4471 8.94744 45.6328 9.00603 48.8077 9.1797C51.171 12.0793 53.5194 14.9894 55.8531 17.9102C55.9348 21.6602 55.9348 25.4102 55.8531 29.1602C55.7918 29.375 55.6488 29.5117 55.4242 29.5703C54.2784 29.59 53.1349 29.6486 51.9934 29.7461C50.9501 33.1447 48.5811 34.6485 44.8868 34.2578C42.4112 33.6284 40.8592 32.1245 40.2307 29.7461C32.7156 29.5899 25.2005 29.5899 17.6854 29.7461C16.6421 33.1447 14.2731 34.6485 10.5788 34.2578C7.09642 33.2437 5.56481 30.9977 5.98393 27.5195C6.78373 24.6642 8.72379 23.1797 11.804 23.0664C14.9306 23.2041 16.8911 24.7276 17.6854 27.6367C24.2197 27.7539 30.7547 27.7929 37.29 27.7539C37.29 25.5664 37.29 23.379 37.29 21.1914C25.037 21.211 12.7841 21.1914 0.531407 21.1328C0.161861 20.9536 -0.00151873 20.6607 0.0412928 20.2539C-0.00151873 19.8472 0.161861 19.5542 0.531407 19.375C12.7841 19.3164 25.037 19.2969 37.29 19.3164C37.3104 14.6288 37.29 9.94131 37.2287 5.25392C37.0428 3.59185 36.0831 2.67381 34.3493 2.50002C23.4034 2.46099 12.4575 2.42185 1.51164 2.38283C1.14209 2.20365 0.97871 1.91068 1.02152 1.50392C0.994859 1.08603 1.15823 0.77361 1.51164 0.566423ZM39.2504 10.8789C42.0289 10.8399 44.8063 10.8789 47.5824 10.9961C49.6624 13.591 51.7658 16.1691 53.8926 18.7305C53.9539 21.7381 53.9743 24.7458 53.9539 27.7539C53.2953 27.7924 52.6418 27.7533 51.9934 27.6367C51.1991 24.7276 49.2386 23.2041 46.112 23.0664C42.9855 23.2041 41.025 24.7276 40.2307 27.6367C39.9138 27.7516 39.587 27.7906 39.2504 27.7539C39.2504 22.1289 39.2504 16.5039 39.2504 10.8789ZM43.1714 14.6289C43.9892 14.6095 44.8061 14.6289 45.6219 14.6875C46.6377 15.9327 47.6996 17.1436 48.8077 18.3203C46.9293 18.3789 45.0506 18.3985 43.1714 18.3789C43.1714 17.1289 43.1714 15.879 43.1714 14.6289ZM10.8238 25.0586C14.1306 24.8814 15.703 26.3658 15.5412 29.5117C15.0159 31.287 13.7906 32.2635 11.8653 32.4414C9.01173 32.063 7.74565 30.5006 8.06691 27.7539C8.51831 26.4044 9.43727 25.5059 10.8238 25.0586ZM45.1318 25.0586C48.4386 24.8814 50.011 26.3658 49.8492 29.5117C49.3239 31.287 48.0986 32.2635 46.1733 32.4414C43.3197 32.063 42.0536 30.5006 42.3749 27.7539C42.8263 26.4044 43.7453 25.5059 45.1318 25.0586Z" fill="#4FF3BA"/>
</svg>
